<mxfile host="app.diagrams.net" modified="2024-05-06T16:39:41.365Z" agent="Mozilla/5.0 (Windows NT 10.0; Win64; x64) AppleWebKit/537.36 (KHTML, like Gecko) Chrome/124.0.0.0 Safari/537.36" version="24.3.1" etag="juUKAHajw9JLq2TDCu-b" type="github">
  <diagram name="Trang-1" id="4y4UaKRE-drLZQj6pOYA">
    <mxGraphModel>
      <root>
        <mxCell id="0" />
        <mxCell id="1" parent="0" />
      </root>
    </mxGraphModel>
  </diagram>
</mxfile>
